HIERARCHY
ROOT hip
{
	OFFSET 0.000000 0.000000 0.000000 
	CHANNELS 6 Xposition Yposition Zposition Xrotation Zrotation Yrotation
	JOINT abdomen
	{
		OFFSET 0.000000 3.402643 0.000000 
		CHANNELS 3 Xrotation Zrotation Yrotation
		JOINT chest
		{
			OFFSET 0.000000 8.438565 -0.680529 
			CHANNELS 3 Xrotation Zrotation Yrotation
			JOINT neck
			{
				OFFSET 0.000000 10.207942 -0.272212 
				CHANNELS 3 Xrotation Zrotation Yrotation
				JOINT head
				{
					OFFSET 0.000000 3.130431 0.000000 
					CHANNELS 3 Xrotation Zrotation Yrotation
					End Site
					{
						OFFSET 0.000000 3.130435 0.000000 
					}
				}
			}
			JOINT lCollar
			{
				OFFSET 3.470700 6.669187 -0.816635 
				CHANNELS 3 Yrotation Zrotation Xrotation
				JOINT lShldr
				{
					OFFSET 3.198488 0.000000 0.000000 
					CHANNELS 3 Zrotation Yrotation Xrotation
					JOINT lForeArm
					{
						OFFSET 10.139888 0.000000 0.000000 
						CHANNELS 3 Yrotation Zrotation Xrotation
						JOINT lHand
						{
							OFFSET 8.370511 0.000000 0.000000 
							CHANNELS 3 Zrotation Yrotation Xrotation
							End Site
							{
								OFFSET 4.083176 0.000000 0.000000 
							}
						}
					}
				}
			}
			JOINT rCollar
			{
				OFFSET -3.470700 6.669187 -0.816635 
				CHANNELS 3 Yrotation Zrotation Xrotation
				JOINT rShldr
				{
					OFFSET -3.198488 0.000000 0.000000 
					CHANNELS 3 Zrotation Yrotation Xrotation
					JOINT rForeArm
					{
						OFFSET -10.139888 0.000000 0.000000 
						CHANNELS 3 Yrotation Zrotation Xrotation
						JOINT rHand
						{
							OFFSET -8.370511 0.000000 0.000000 
							CHANNELS 3 Zrotation Yrotation Xrotation
							End Site
							{
								OFFSET -4.083176 0.000000 0.000000 
							}
						}
					}
				}
			}
		}
	}
	JOINT lThigh
	{
		OFFSET 5.308129 -1.633274 1.361059 
		CHANNELS 3 Xrotation Zrotation Yrotation
		JOINT lShin
		{
			OFFSET -2.041588 -20.007561 0.000000 
			CHANNELS 3 Xrotation Zrotation Yrotation
			JOINT lFoot
			{
				OFFSET 0.000000 -19.190928 -1.224953 
				CHANNELS 3 Xrotation Yrotation Zrotation
				End Site
				{
					OFFSET 0.000000 -2.449906 4.627600 
				}
			}
		}
	}
	JOINT rThigh
	{
		OFFSET -5.308129 -1.633274 1.361059 
		CHANNELS 3 Xrotation Zrotation Yrotation
		JOINT rShin
		{
			OFFSET 2.041588 -20.007561 0.000000 
			CHANNELS 3 Xrotation Zrotation Yrotation
			JOINT rFoot
			{
				OFFSET 0.000000 -19.190928 -1.224953 
				CHANNELS 3 Xrotation Yrotation Zrotation
				End Site
				{
					OFFSET 0.000000 -2.449906 4.627600 
				}
			}
		}
	}
}
MOTION
Frames: 20
Frame Time: 0.016667
-0.624912 44.071758 -3.601822 -2.080510 -1.171100 15.882400 -17.149300 1.703220 -2.065910 15.862600 3.017210 -0.950409 0.684698 -10.806252 -2.454466 10.262200 6.006170 -0.758571 2.000000 -2.000000 0.000000 96.113098 -149.912003 8.047110 132.188004 -0.116474 0.118333 0.067541 -0.063591 -160.270996 -2.000000 2.000000 0.000000 -104.440002 154.442993 8.045950 -136.660004 0.122514 0.077376 -0.060957 0.045396 -153.356995 -18.616106 7.970046 -0.810548 36.730694 2.920746 2.535499 2.920421 -0.239676 0.505688 -23.492527 -3.211579 -5.884556 67.174278 -0.682862 -4.214687 7.397377 1.282908 -0.860037 
-0.695757 43.892490 -4.046682 -2.422350 -1.131800 15.692400 -17.205400 2.065520 -1.710660 16.302500 3.057970 -0.715316 0.753605 -10.929076 -2.770697 10.164300 6.026900 -0.932729 2.000000 -2.000000 0.000000 95.645401 -150.634003 7.962490 132.569000 -0.115755 0.117677 0.067585 -0.063691 -160.309998 -2.000000 2.000000 0.000000 -104.723000 154.401993 7.440580 -136.455002 0.122827 0.077706 -0.061003 0.045553 -153.416000 -18.392071 7.961850 -2.909827 36.081722 3.036045 2.472963 3.173866 -0.116358 0.507338 -21.148317 -3.062982 -6.192901 68.810204 -0.606397 -4.251890 11.046243 1.210121 -0.929676 
-0.760811 43.449459 -4.470039 -2.705370 -0.838908 15.313100 -17.395399 2.247740 -1.337340 16.566900 2.981050 -0.490748 0.656521 -11.213697 -2.932947 10.163900 5.997780 -1.043270 2.000000 -2.000000 0.000000 95.353302 -151.278000 7.834090 133.125000 -0.114711 0.116709 0.067563 -0.063641 -160.291000 -2.000000 2.000000 0.000000 -104.430000 154.431000 7.147540 -136.192001 0.123230 0.078128 -0.061081 0.045816 -153.514008 -18.248497 7.911477 -3.491078 36.325298 3.054430 2.475365 1.432652 -1.613846 0.606352 -18.244167 -2.961628 -6.146996 68.854828 -0.698828 -4.214066 11.410660 1.174986 -0.921597 
-0.825866 43.006554 -4.893376 -2.988420 -0.546131 14.930900 -17.584600 2.429890 -0.963897 16.831100 2.904020 -0.266893 0.559291 -11.498349 -3.094456 10.163500 5.968650 -1.153810 2.000000 -2.000000 0.000000 95.061302 -151.912994 7.695950 133.682007 -0.113677 0.115731 0.067541 -0.063591 -160.270996 -2.000000 2.000000 0.000000 -104.137001 154.460007 6.854500 -135.927994 0.123636 0.078549 -0.061159 0.046078 -153.610992 -18.173191 7.850552 -4.071317 36.636387 3.087648 2.481816 -0.316334 -3.123552 0.624622 -15.243442 -2.850020 -6.093603 68.773056 -0.775495 -4.180947 11.765761 1.120620 -0.898257 
-1.064010 42.511448 -5.339370 -3.457070 -0.272940 14.967700 -17.782700 2.604900 -0.803980 16.762100 3.069440 -0.173890 0.345350 -11.970795 -3.063693 10.290700 5.937830 -1.173080 2.000000 -2.000000 0.000000 94.817299 -152.108002 7.568550 133.867996 -0.113335 0.115403 0.067379 -0.063214 -160.125000 -2.000000 2.000000 0.000000 -103.083000 154.841995 7.419970 -135.820999 0.123801 0.078720 -0.060910 0.045239 -153.298996 -18.877855 8.102794 -2.737638 38.109329 2.985595 2.595141 -2.088418 -3.130079 0.535203 -11.840115 -2.013570 -5.760914 66.698616 -1.019415 -4.062940 9.228323 1.828456 -0.889048 
-1.302147 42.016205 -5.785363 -3.935550 -0.009743 15.010400 -17.980499 2.766940 -0.651349 16.702801 3.234870 -0.080729 0.120905 -12.441696 -3.027165 10.427800 5.906860 -1.191490 2.000000 -2.000000 0.000000 94.573402 -152.302994 7.441160 134.052994 -0.112993 0.115073 0.067229 -0.062862 -159.988007 -2.000000 2.000000 0.000000 -102.028999 155.233994 7.965870 -135.712997 0.123967 0.078890 -0.060658 0.044372 -152.975998 -19.599817 8.367923 -1.408695 39.608959 2.893275 2.688433 -3.877098 -3.144713 0.418799 -8.539740 -1.203197 -5.384316 64.692665 -1.270811 -3.961273 6.713535 2.557444 -0.853182 
-1.681333 41.568672 -6.346032 -4.091800 0.107148 15.060700 -18.136801 2.798030 -0.402706 16.546801 3.117370 0.045578 -0.215176 -12.342791 -2.907681 10.396600 5.781090 -1.179230 2.000000 -2.000000 0.000000 94.533798 -151.901993 7.481120 133.809006 -0.113443 0.115506 0.066656 -0.061501 -159.460999 -2.000000 2.000000 0.000000 79.171600 24.139700 -171.371994 -135.839996 0.123771 0.078689 -0.060220 0.042819 -152.399994 -20.715960 8.455345 -1.829207 40.792450 2.815284 2.760281 -4.713193 -2.636167 0.423249 -5.735445 0.148569 -4.955393 61.293839 -1.589444 -3.805236 0.956205 0.337459 -0.697733 
-2.060508 41.121014 -6.906690 -4.238310 0.223995 15.110400 -18.292601 2.819920 -0.150693 16.390699 3.009620 0.171817 -0.541878 -12.254399 -2.784324 10.375200 5.645480 -1.166960 2.000000 -2.000000 0.000000 94.484398 -151.501999 7.521090 133.565002 -0.113894 0.115938 0.066107 -0.060160 -158.942993 -2.000000 2.000000 0.000000 80.352203 23.503500 -170.738007 -135.966995 0.123576 0.078487 -0.059797 0.041262 -151.824005 -21.810085 8.530436 -2.249900 41.984627 2.738301 2.820220 -5.553088 -2.111384 0.463210 -2.926870 1.491444 -4.469802 57.953747 -1.865291 -3.644241 -4.827457 -1.870449 -0.716176 
-2.532362 40.821880 -7.630575 -3.984450 -0.360455 14.302500 -18.281300 2.960900 0.419791 16.460899 2.503360 0.494802 -0.726312 -12.013570 -2.345242 10.404400 5.625680 -0.961157 2.000000 -2.000000 0.000000 94.571198 -150.720993 7.679090 133.643005 -0.113750 0.115800 0.066344 -0.060742 -159.167999 -2.000000 2.000000 0.000000 81.142799 23.297300 -170.270004 -136.270004 0.123111 0.078003 -0.059444 0.039913 -151.326004 -23.425758 9.215854 -3.687800 42.769093 2.744968 2.867864 -5.431680 -1.766195 0.572640 -2.280566 3.119347 -3.864161 55.341747 -2.034401 -3.522563 -9.224452 -5.272303 -1.586999 
-3.004228 40.522758 -8.354460 -3.730960 -0.925768 13.488100 -18.277599 3.101710 0.990355 16.530701 2.006760 0.806143 -0.898266 -11.764555 -1.902615 10.443400 5.605760 -0.754425 2.000000 -2.000000 0.000000 94.657997 -149.940002 7.841960 133.720993 -0.113605 0.115662 0.066583 -0.061324 -159.391998 -2.000000 2.000000 0.000000 81.933403 23.081400 -169.815994 -136.572006 0.122648 0.077517 -0.059103 0.038561 -150.828003 -25.057238 9.869685 -5.141235 43.496632 2.723179 2.915768 -5.259627 -1.388219 0.696172 -1.666034 4.742565 -3.244523 52.759464 -2.181851 -3.407567 -13.681332 -8.617358 -2.664351 
-3.593273 40.558506 -9.174979 -3.008020 -0.672900 12.994300 -18.258200 2.788390 1.433570 16.511900 1.704730 0.992808 -0.665859 -11.863899 -1.624436 10.622400 5.778050 -0.570672 2.000000 -2.000000 0.000000 -85.127899 -30.586000 -171.766006 133.710999 -0.113623 0.115679 0.066541 -0.061223 -159.352997 -2.000000 2.000000 0.000000 82.411697 23.012199 -169.464005 -136.612000 0.122589 0.077454 -0.059242 0.039118 -151.033005 -26.127018 9.417592 -6.607726 42.283745 2.808655 2.831190 -2.866176 -0.178505 0.823439 -2.477243 4.770379 -4.114750 51.191177 -2.210709 -3.341904 -15.920671 -10.156548 -3.550719 
-4.182318 40.594261 -9.995486 -2.294980 -0.409827 12.506700 -18.248600 2.484160 1.873230 16.492901 1.392970 1.180370 -0.430992 -11.953464 -1.339091 10.791700 5.950300 -0.385868 2.000000 -2.000000 0.000000 -84.903999 -31.122200 -171.384003 133.701996 -0.113641 0.115696 0.066510 -0.061147 -159.324005 -2.000000 2.000000 0.000000 82.889999 22.952801 -169.123001 -136.641006 0.122544 0.077407 -0.059390 0.039701 -151.248001 -27.158567 8.938399 -8.058540 41.070625 2.886231 2.742079 -0.492107 1.021975 0.905219 -3.333849 4.788368 -4.980452 49.643044 -2.237989 -3.293232 -18.188358 -11.684950 -4.504571 
-4.840732 40.968998 -10.730470 -1.738410 -0.693040 12.755400 -18.276100 2.315970 1.896990 16.414900 1.324660 1.163880 -0.298379 -11.880776 -1.110601 10.841800 6.017470 -0.245776 2.000000 -2.000000 0.000000 -84.942802 -31.120701 -170.740005 133.505997 -0.114003 0.116041 0.066096 -0.060134 -158.932999 -2.000000 2.000000 0.000000 82.479599 22.524200 -169.591995 -136.602005 0.122603 0.077470 -0.059349 0.039542 -151.188995 -27.598734 9.160144 -9.203039 38.598663 3.101734 2.568502 2.118282 1.846381 0.806798 -4.002043 5.118392 -6.741553 47.505516 -2.283187 -3.205527 -17.975258 -10.960178 -4.214821 
-5.499148 41.343750 -11.465420 -1.181810 -0.976355 12.998700 -18.303801 2.144410 1.911780 16.327101 1.246600 1.148070 -0.167333 -11.817761 -0.879924 10.892000 6.094320 -0.104410 2.000000 -2.000000 0.000000 -84.991302 -31.109400 -170.085007 133.311005 -0.114366 0.116384 0.065690 -0.059119 -158.542999 -2.000000 2.000000 0.000000 82.088699 22.095600 -170.061996 -136.563004 0.122663 0.077533 -0.059309 0.039383 -151.130997 -27.999939 9.373983 -10.338469 36.086006 3.286722 2.394475 4.730394 2.652042 0.697354 -4.626494 5.433842 -8.500246 45.310272 -2.301857 -3.115196 -17.771658 -10.231369 -3.938894 
-6.058457 41.868954 -12.101704 -0.840148 -1.542800 12.659300 -18.301500 1.987800 1.994370 16.415501 0.944793 1.181610 0.050683 -12.092021 -0.578064 10.991700 6.189790 0.103284 2.000000 -2.000000 0.000000 -84.844002 -30.727501 -169.647003 133.554993 -0.113912 0.115955 0.066344 -0.060742 -159.167999 -2.000000 2.000000 0.000000 81.278000 21.550900 -170.981003 -136.376999 0.122946 0.077831 -0.059390 0.039701 -151.248001 -27.714029 9.981970 -10.217334 35.254162 3.345647 2.333471 3.484967 2.848123 0.744986 -5.415557 5.576458 -10.137089 43.851273 -2.306994 -3.080475 -15.515558 -7.456612 -2.713907 
-6.617755 42.394154 -12.737876 -0.498385 -2.109300 12.313300 -18.309299 1.836980 2.064910 16.493900 0.642912 1.214110 0.269954 -12.366164 -0.266546 11.091400 6.285210 0.301537 2.000000 -2.000000 0.000000 -84.696701 -30.345600 -169.203003 133.798996 -0.113461 0.115524 0.067005 -0.062333 -159.783005 -2.000000 2.000000 0.000000 -99.503403 159.003998 8.109150 -136.192001 0.123230 0.078128 -0.059471 0.040019 -151.365005 -27.440008 10.600551 -10.106615 34.478317 3.435669 2.289452 2.185196 3.031063 0.814575 -6.216809 5.696349 -11.794937 42.382828 -2.291879 -3.028237 -13.332558 -4.627503 -1.605753 
-7.028328 42.966183 -13.448302 -0.224807 -2.402320 11.249600 -18.280199 1.735540 2.016720 16.279200 0.457706 1.186470 0.129072 -12.802758 0.364361 11.337700 6.320070 0.606634 2.000000 -2.000000 0.000000 -84.715797 -29.994699 -169.487000 133.828003 -0.113407 0.115472 0.066920 -0.062132 -159.705002 -2.000000 2.000000 0.000000 -100.499001 159.100006 7.562050 -135.742004 0.123922 0.078844 -0.059595 0.040495 -151.541000 -26.860428 10.791419 -8.911737 36.991314 3.181270 2.487203 0.318578 2.301456 0.917771 -8.222867 4.929770 -13.335860 43.125626 -2.175161 -3.094986 -9.065770 -0.643809 -0.616639 
-7.438903 43.538197 -14.158730 0.048882 -2.695310 10.192600 -18.261000 1.630610 1.959180 16.064400 0.272598 1.150460 -0.044126 -13.254804 1.017302 11.593700 6.354610 0.923971 2.000000 -2.000000 0.000000 -84.734901 -29.634001 -169.781006 133.867996 -0.113335 0.115403 0.066825 -0.061905 -159.617004 -2.000000 2.000000 0.000000 -101.486000 159.216003 7.024660 -135.292999 0.124620 0.079554 -0.059713 0.040945 -151.707001 -26.358093 10.928140 -7.696597 39.621758 2.965929 2.654970 -1.604637 1.558390 1.025651 -10.241599 4.101974 -14.856336 43.907108 -2.075691 -3.184911 -4.904019 3.479639 0.081364 
-7.757820 44.013634 -14.859606 0.322540 -2.363240 8.189430 -18.260500 1.527590 1.962320 15.888500 0.486662 1.122370 -0.427824 -13.022779 1.970336 11.483700 6.240210 1.335330 2.000000 -2.000000 0.000000 -84.714699 -28.942801 -170.681000 133.985001 -0.113119 0.115195 0.066782 -0.061804 -159.578003 -2.000000 2.000000 0.000000 -102.287003 159.654007 6.584160 -135.009995 0.125062 0.079999 -0.059699 0.040892 -151.686996 -24.917995 10.410192 -5.998736 43.395336 2.634369 2.931994 -2.050542 -1.497620 0.978731 -12.784496 2.554834 -15.014733 45.354492 -1.959131 -3.288846 -1.468224 6.238955 -0.058814 
-8.076748 44.489071 -15.560598 0.586306 -2.031140 6.180060 -18.260000 1.415300 1.968520 15.722300 0.710355 1.092270 -0.809252 -12.781217 2.920850 11.364000 6.125890 1.756930 2.000000 -2.000000 0.000000 -84.704300 -28.241800 -171.580994 134.112000 -0.112886 0.114969 0.066751 -0.061728 -159.548996 -2.000000 2.000000 0.000000 -103.078003 160.102005 6.153390 -134.716995 0.125522 0.080457 -0.059678 0.040813 -151.658005 -23.600418 9.806769 -4.313957 47.393490 2.344774 3.175499 -2.637462 -4.540062 0.811980 -15.410128 0.971618 -15.108230 46.996758 -1.846562 -3.394678 1.881676 8.982978 -0.346659 
